<?xml version="1.0" encoding="UTF-8" standalone="no"?>
<!-- Created with Inkscape (http://www.inkscape.org/) -->
<svg xmlns:dc="http://purl.org/dc/elements/1.1/" xmlns:cc="http://creativecommons.org/ns#" xmlns:rdf="http://www.w3.org/1999/02/22-rdf-syntax-ns#" xmlns:svg="http://www.w3.org/2000/svg" xmlns="http://www.w3.org/2000/svg" xmlns:sodipodi="http://sodipodi.sourceforge.net/DTD/sodipodi-0.dtd" xmlns:inkscape="http://www.inkscape.org/namespaces/inkscape" id="svg2440" sodipodi:version="0.32" inkscape:version="0.46" width="258" height="206" version="1.0" sodipodi:docname="ConvexHull.svg" inkscape:output_extension="org.inkscape.output.svg.inkscape">
  <metadata id="metadata2445">
    <rdf:RDF>
      <cc:Work rdf:about="">
        <dc:format>image/svg+xml</dc:format>
        <dc:type rdf:resource="http://purl.org/dc/dcmitype/StillImage"/>
      </cc:Work>
    </rdf:RDF>
  </metadata>
  <defs id="defs2443">
    <inkscape:perspective sodipodi:type="inkscape:persp3d" inkscape:vp_x="0 : 526.18109 : 1" inkscape:vp_y="0 : 1000 : 0" inkscape:vp_z="744.09448 : 526.18109 : 1" inkscape:persp3d-origin="372.04724 : 350.78739 : 1" id="perspective2447"/>
  </defs>
  <sodipodi:namedview inkscape:window-height="968" inkscape:window-width="1280" inkscape:pageshadow="2" inkscape:pageopacity="0.0" guidetolerance="10.0" gridtolerance="10.0" objecttolerance="10.0" borderopacity="1.0" bordercolor="#666666" pagecolor="#ffffff" id="base" showgrid="false" inkscape:zoom="1" inkscape:cx="46.880851" inkscape:cy="-16.777505" inkscape:window-x="-4" inkscape:window-y="-4" inkscape:current-layer="svg2440"/>
  <path style="fill:none;fill-rule:evenodd;stroke:#000000;stroke-width:1px;stroke-linecap:butt;stroke-linejoin:miter;stroke-opacity:1" d="M 126.15441,6.8088235 C 161.56341,6.8088235 249.72143,51.669471 249.9375,99.764706 C 250.03947,122.46243 240.39155,140.379 230.09741,156.97462 C 213.38248,183.92148 175.72654,198.04571 115.24632,196.51471 C 92.314569,195.93422 57.05538,196.62944 33.132672,172.70674 C 15.516614,155.09068 5.6911765,104.61528 5.6911765,80.794118 C 5.6911765,16.641784 118.25876,6.8088235 126.15441,6.8088235 z" id="path2451" sodipodi:nodetypes="cssssss"/>
  <path sodipodi:type="arc" style="opacity:1;fill:#000000;fill-opacity:1;fill-rule:evenodd;stroke:none;stroke-width:1;stroke-linecap:square;stroke-linejoin:miter;stroke-miterlimit:4;stroke-dasharray:none;stroke-dashoffset:0;stroke-opacity:1" id="path2453" sodipodi:cx="119.93162" sodipodi:cy="79.277428" sodipodi:rx="3.6889136" sodipodi:ry="3.6889136" d="M 123.62053,79.277428 A 3.6889136,3.6889136 0 1 1 116.2427,79.277428 A 3.6889136,3.6889136 0 1 1 123.62053,79.277428 z" transform="matrix(1.0843301,0,0,1.0843301,-10.096194,-6.9965591)"/>
  <path sodipodi:type="arc" style="opacity:1;fill:#000000;fill-opacity:1;fill-rule:evenodd;stroke:none;stroke-width:1;stroke-linecap:square;stroke-linejoin:miter;stroke-miterlimit:4;stroke-dasharray:none;stroke-dashoffset:0;stroke-opacity:1" id="path3225" sodipodi:cx="119.93162" sodipodi:cy="79.277428" sodipodi:rx="3.6889136" sodipodi:ry="3.6889136" d="M 123.62053,79.277428 A 3.6889136,3.6889136 0 1 1 116.2427,79.277428 A 3.6889136,3.6889136 0 1 1 123.62053,79.277428 z" transform="matrix(1.0843301,0,0,1.0843301,-47.24914,-43.507395)"/>
  <path sodipodi:type="arc" style="opacity:1;fill:#000000;fill-opacity:1;fill-rule:evenodd;stroke:none;stroke-width:1;stroke-linecap:square;stroke-linejoin:miter;stroke-miterlimit:4;stroke-dasharray:none;stroke-dashoffset:0;stroke-opacity:1" id="path3227" sodipodi:cx="119.93162" sodipodi:cy="79.277428" sodipodi:rx="3.6889136" sodipodi:ry="3.6889136" d="M 123.62053,79.277428 A 3.6889136,3.6889136 0 1 1 116.2427,79.277428 A 3.6889136,3.6889136 0 1 1 123.62053,79.277428 z" transform="matrix(1.0843301,0,0,1.0843301,25.468149,-43.102151)"/>
  <path sodipodi:type="arc" style="opacity:1;fill:#000000;fill-opacity:1;fill-rule:evenodd;stroke:none;stroke-width:1;stroke-linecap:square;stroke-linejoin:miter;stroke-miterlimit:4;stroke-dasharray:none;stroke-dashoffset:0;stroke-opacity:1" id="path3229" sodipodi:cx="119.93162" sodipodi:cy="79.277428" sodipodi:rx="3.6889136" sodipodi:ry="3.6889136" d="M 123.62053,79.277428 A 3.6889136,3.6889136 0 1 1 116.2427,79.277428 A 3.6889136,3.6889136 0 1 1 123.62053,79.277428 z" transform="matrix(1.0843301,0,0,1.0843301,65.928077,-18.967876)"/>
  <path sodipodi:type="arc" style="opacity:1;fill:#000000;fill-opacity:1;fill-rule:evenodd;stroke:none;stroke-width:1;stroke-linecap:square;stroke-linejoin:miter;stroke-miterlimit:4;stroke-dasharray:none;stroke-dashoffset:0;stroke-opacity:1" id="path3231" sodipodi:cx="119.93162" sodipodi:cy="79.277428" sodipodi:rx="3.6889136" sodipodi:ry="3.6889136" d="M 123.62053,79.277428 A 3.6889136,3.6889136 0 1 1 116.2427,79.277428 A 3.6889136,3.6889136 0 1 1 123.62053,79.277428 z" transform="matrix(1.0843301,0,0,1.0843301,65.928537,57.03213)"/>
  <path sodipodi:type="arc" style="opacity:1;fill:#000000;fill-opacity:1;fill-rule:evenodd;stroke:none;stroke-width:1;stroke-linecap:square;stroke-linejoin:miter;stroke-miterlimit:4;stroke-dasharray:none;stroke-dashoffset:0;stroke-opacity:1" id="path3233" sodipodi:cx="119.93162" sodipodi:cy="79.277428" sodipodi:rx="3.6889136" sodipodi:ry="3.6889136" d="M 123.62053,79.277428 A 3.6889136,3.6889136 0 1 1 116.2427,79.277428 A 3.6889136,3.6889136 0 1 1 123.62053,79.277428 z" transform="matrix(1.0843301,0,0,1.0843301,-34.175626,81.051988)"/>
  <path sodipodi:type="arc" style="opacity:1;fill:#000000;fill-opacity:1;fill-rule:evenodd;stroke:none;stroke-width:1;stroke-linecap:square;stroke-linejoin:miter;stroke-miterlimit:4;stroke-dasharray:none;stroke-dashoffset:0;stroke-opacity:1" id="path3235" sodipodi:cx="119.93162" sodipodi:cy="79.277428" sodipodi:rx="3.6889136" sodipodi:ry="3.6889136" d="M 123.62053,79.277428 A 3.6889136,3.6889136 0 1 1 116.2427,79.277428 A 3.6889136,3.6889136 0 1 1 123.62053,79.277428 z" transform="matrix(1.0843301,0,0,1.0843301,-94.078554,4.9681434)"/>
  <path sodipodi:type="arc" style="opacity:1;fill:#000000;fill-opacity:1;fill-rule:evenodd;stroke:none;stroke-width:1;stroke-linecap:square;stroke-linejoin:miter;stroke-miterlimit:4;stroke-dasharray:none;stroke-dashoffset:0;stroke-opacity:1" id="path3237" sodipodi:cx="119.93162" sodipodi:cy="79.277428" sodipodi:rx="3.6889136" sodipodi:ry="3.6889136" d="M 123.62053,79.277428 A 3.6889136,3.6889136 0 1 1 116.2427,79.277428 A 3.6889136,3.6889136 0 1 1 123.62053,79.277428 z" transform="matrix(1.0843301,0,0,1.0843301,-46.248435,28.862243)"/>
  <path sodipodi:type="arc" style="opacity:1;fill:#000000;fill-opacity:1;fill-rule:evenodd;stroke:none;stroke-width:1;stroke-linecap:square;stroke-linejoin:miter;stroke-miterlimit:4;stroke-dasharray:none;stroke-dashoffset:0;stroke-opacity:1" id="path3239" sodipodi:cx="119.93162" sodipodi:cy="79.277428" sodipodi:rx="3.6889136" sodipodi:ry="3.6889136" d="M 123.62053,79.277428 A 3.6889136,3.6889136 0 1 1 116.2427,79.277428 A 3.6889136,3.6889136 0 1 1 123.62053,79.277428 z" transform="matrix(1.0843301,0,0,1.0843301,37.80011,16.915194)"/>
  <path sodipodi:type="arc" style="opacity:1;fill:#000000;fill-opacity:1;fill-rule:evenodd;stroke:none;stroke-width:1;stroke-linecap:square;stroke-linejoin:miter;stroke-miterlimit:4;stroke-dasharray:none;stroke-dashoffset:0;stroke-opacity:1" id="path3241" sodipodi:cx="119.93162" sodipodi:cy="79.277428" sodipodi:rx="3.6889136" sodipodi:ry="3.6889136" d="M 123.62053,79.277428 A 3.6889136,3.6889136 0 1 1 116.2427,79.277428 A 3.6889136,3.6889136 0 1 1 123.62053,79.277428 z" transform="matrix(1.0843301,0,0,1.0843301,13.822171,40.893133)"/>
  <path style="fill:none;fill-rule:evenodd;stroke:#0000ff;stroke-width:1px;stroke-linecap:butt;stroke-linejoin:round;stroke-opacity:1" d="M 81.026746,38.335873 C 84.782785,36.474149 155.37936,38.164377 156.7477,38.573005 C 158.1447,38.990193 198.3096,62.568374 199.41712,64.244396 C 200.62731,66.075789 204.41083,141.0554 199.3752,145.90274 C 194.3691,150.72166 98.76622,172.85975 94.108602,171.13739 C 89.411255,169.40033 31.477928,96.717092 31.477928,90.972965 C 31.477928,85.465969 77.253877,40.205938 81.026746,38.335873 z" id="path3243" sodipodi:nodetypes="czzzzzz"/>
  <path style="fill:none;fill-rule:evenodd;stroke:#000000;stroke-width:2;stroke-linecap:butt;stroke-linejoin:miter;stroke-opacity:1;stroke-miterlimit:4;stroke-dasharray:none" d="M 141.03447,195.89223 C 141.03447,195.74403 141.03447,188.03178 141.03447,188.03178" id="path3245" sodipodi:nodetypes="cc"/>
  <path style="fill:#000000;fill-rule:evenodd;stroke:none;stroke-width:1px;stroke-linecap:butt;stroke-linejoin:miter;stroke-opacity:1" d="M 140.94554,182.2824 L 144.99609,189.27643 L 137.00391,189.27643 L 140.94554,182.2824 z" id="path3247"/>
  <g id="g3265" transform="matrix(0.6612018,0.7502081,-0.7502081,0.6612018,134.05564,27.277712)">
    <path sodipodi:nodetypes="cc" id="path3261" d="M 41.046663,171.4695 C 41.046663,171.3213 41.046663,163.60905 41.046663,163.60905" style="fill:none;fill-rule:evenodd;stroke:#000000;stroke-width:2;stroke-linecap:butt;stroke-linejoin:miter;stroke-miterlimit:4;stroke-dasharray:none;stroke-opacity:1"/>
    <path id="path3263" d="M 40.957733,157.85967 L 45.008283,164.8537 L 37.016103,164.8537 L 40.957733,157.85967 z" style="fill:#000000;fill-rule:evenodd;stroke:none;stroke-width:1px;stroke-linecap:butt;stroke-linejoin:miter;stroke-opacity:1"/>
  </g>
  <g id="g3273" transform="matrix(-0.9075717,0.4198973,-0.4198973,-0.9075717,109.19802,33.091082)">
    <path sodipodi:nodetypes="cc" id="path3269" d="M 53.951362,31.81591 C 53.951362,31.66771 53.951362,23.95546 53.951362,23.95546" style="fill:none;fill-rule:evenodd;stroke:#000000;stroke-width:2;stroke-linecap:butt;stroke-linejoin:miter;stroke-miterlimit:4;stroke-dasharray:none;stroke-opacity:1"/>
    <path id="path3271" d="M 53.862432,18.20608 L 57.912982,25.20011 L 49.920802,25.20011 L 53.862432,18.20608 z" style="fill:#000000;fill-rule:evenodd;stroke:none;stroke-width:1px;stroke-linecap:butt;stroke-linejoin:miter;stroke-opacity:1"/>
  </g>
  <g id="g3281" transform="matrix(0,-1,1,0,144.37141,340.2619)">
    <path sodipodi:nodetypes="cc" id="path3277" d="M 241.24627,105.35501 C 241.24627,105.20681 241.24627,97.494565 241.24627,97.494565" style="fill:none;fill-rule:evenodd;stroke:#000000;stroke-width:2;stroke-linecap:butt;stroke-linejoin:miter;stroke-miterlimit:4;stroke-dasharray:none;stroke-opacity:1"/>
    <path id="path3279" d="M 241.15734,91.745185 L 245.20789,98.739215 L 237.21571,98.739215 L 241.15734,91.745185 z" style="fill:#000000;fill-rule:evenodd;stroke:none;stroke-width:1px;stroke-linecap:butt;stroke-linejoin:miter;stroke-opacity:1"/>
  </g>
</svg>